<?xml version="1.0"?>
<svg xmlns:rdf="http://www.w3.org/1999/02/22-rdf-syntax-ns#" xmlns="http://www.w3.org/2000/svg" xmlns:cc="http://creativecommons.org/ns#" xmlns:dc="http://purl.org/dc/elements/1.1/" xmlns:svg="http://www.w3.org/2000/svg" id="svg2" viewBox="0 0 425.7 464.18" version="1.1">
  <title id="title3354">Coffee Cup</title>
  <g id="layer1" transform="translate(-137.8 -115.53)">
    <g id="g2996" transform="translate(245.7 160.49)">
      <g id="g3341">
        <path id="path3004" fill="#04a" d="m275.15 133.31c-20.601 1.9588-41.498 17.265-46.707 41.594-12.079 39.619-8.7989 82.481-3.3459 123.19 0.42972 20.07-1.2612 40.726-6.6648 59.812-8.7553 18.88-22.632 34.355-40.501 40.938-24.307 11.914-50.832 10.382-76.793 12.688-25.593 0.28238-51.609-3.1556-76.659-8.6875-36.781-12.358-60.116-8.4138-85.05-44.656-13.562-19.492-30.103-61.95-26.281-85.656 2.6369-16.357 6.3211-34.798 16.379-46.281 1.0953 2.3531 2.6649 4.4841 4.749 6.1562 15.685 12.058 35.007 15.225 53.291 18.219 33.847 4.8821 68.003 1.9734 101.97 3.75 23.782-1.5664 47.656-4.4509 70.83-10.938 10.99-3.3953 21.998-7.5676 32.191-13.531 5.2316-5.749 17.35-8.1716 12.385-14.406-5.2349-6.5732-12.196 1.29-23.718 4.8438-31.299 15.218-65.638 18.696-99.162 21.188-37.754-1.5437-75.902 1.8893-113.36-5.3125-9.2712-3.2005-24.699-3.0439-26.2-17.094 0.62144-13.318 12.844-18.391 21.937-22.656 26.236-11.511 54.55-14.705 82.379-16.344 16.457-0.13886 32.879-1.1815 49.244-3.0938 16.762-1.6558 33.492 0.59613 49.864 4.7188 10.299 1.6442 20.246 5.6665 30.437 7.4688 9.0361 5.1596 9.6968 6.5962 19.32 10.031 12.282 2.5154 5.2726-9.0439 2.6713-12.344-7.931-6.4788-18.563-8.344-27.9-11.344-9.4554-1.8467-18.795-4.244-28.224-6.4375-15.635-4.9398-32.15-2.5282-48.192-3.3438-10.887 1.8989-21.753-0.82585-32.595 1.4688-23.823 1.45-47.666 3.07-71.181 8.0312-19.03 4.2995-39.028 9.2425-54.748 23.125-4.4438 3.6674-7.2355 9.6677-7.852 15.844-3.089 2.0751-6.0125 4.2561-7.987 5.5938-0.56065 0.37984-1.6627 1.5693-1.9967 2.2188-10.513 20.437-12.853 50.158-9.471 78.031 3.7774 31.133 18.926 66.006 37.021 79.562 22.813 21.924 30.45 15.166 57.905 25.844 29.949 9.3689 63.403 11.513 94.305 13.719 23.855 0.23308 47.719-3.259 71.154-8.0625 18.232-7.6488 38.864-15.03 50.836-34.281 15.024-14.288 14.393-38.252 16.675-58.531 1.5017-16.844-0.75548-34.282-2.8332-51.656-0.56658-18.287-2.7092-37.38 0.53965-55.344 1.7813-16.824 6.8133-33.259 13.33-48.281 10.039-17.774 31.164-27.163 47.598-15.281 15.822 12.389 15.207 39.442 2.2936 54.219-8.0234 13.774-32.172 27.901-41.041 8.125-9.547-18.506 4.2412-45.393 22.342-46.406 14.924 11.862-1.8763 34.27-16.514 27.969 7.5099 14.648 36.823 6.3499 32.541-14.094 0.0158-21.011-22.283-26.079-34.646-15.125-13.549 8.2039-22.548 26.013-15.839 43.406 7.583 21.173 35.294 25.944 50.026 11.906 15.298-12.044 29.133-32.679 21.937-55.281-6.9507-16.392-25.531-26.915-40.69-29.188z"/>
        <g id="g3330" transform="translate(15,-2)">
          <g id="g3318" transform="translate(8)">
            <path id="path3124" d="m-44.071 35.252c0.07104 0.35189 0.10656 0.92391 0.10663 1.7161-0.000088 3.0804-0.81176 5.7646-2.435 8.0526-1.6234 2.2882-3.6707 3.4322-6.1417 3.4321-2.0468 0.000066-3.529-0.79218-4.4467-2.3767-0.63562-1.144-0.95339-2.5955-0.95332-4.3546-0.00007-0.88077 0.03442-1.5414 0.1034-1.9819-0.000071-0.08866 0.03547-0.17578 0.10664-0.26184-0.84676-0.35442-1.8173-0.6411-2.9117-0.86005-1.0945-0.21868-2.1706-0.32824-3.2284-0.32831-6.2845 0.000066-14.298 3.8713-24.04 11.614-9.1757 7.3047-17.258 15.796-24.247 25.475-7.4133 10.296-11.12 18.657-11.12 25.08 0 3.784 1.4822 6.5998 4.4467 8.4474 5.4356 3.3462 16.131 5.0193 32.087 5.0193 4.5177 0 9.3183-0.37396 14.402-1.1219 5.0833-0.74792 10.236-1.518 15.458-2.3102 1.4843 0 2.5265 0.198 3.1266 0.59418 0.59993 0.39613 0.89993 1.2535 0.9 2.5721-0.000079 3.3435-3.4945 5.8075-10.483 7.392-5.72 1.3213-12.886 1.9819-21.497 1.9819-15.462 0-27.288-2.2008-35.477-6.6024-7.0578-3.7839-10.587-8.4474-10.587-13.99 0-7.5678 3.2467-17.424 9.7401-29.568 7.06-13.199 15.426-24.155 25.097-32.867 11.507-10.385 22.873-15.577 34.1-15.578 4.6578 0.000088 8.6456 0.90176 11.963 2.705 3.3177 1.8034 5.2944 4.5098 5.93 8.1191z"/>
            <path id="path3126" d="m44.89 67.196c-0.000088 13.903-5.6834 26.531-17.05 37.882-10.942 10.911-22.52 16.367-34.733 16.367-11.224 0-19.802-2.9474-25.732-8.8422s-8.895-14.299-8.895-25.213c0-12.848 3.9889-24.727 11.967-35.639 9.246-12.584 22.165-21.34 38.756-26.268l2.8567 5.543c7.9777 0.000088 15.002 2.5527 21.073 7.6578 7.8376 6.5985 11.757 16.103 11.757 28.512zm-11.437-1.5831c-0.000088-9.1523-2.9301-16.281-8.79-21.386-4.8712-4.2243-10.625-6.3365-17.26-6.3366-6.2133 0.000088-11.456 2.3983-15.727 7.1946-4.2711 4.7964-6.4067 10.538-6.4067 17.225-0.49338 0.35185-1.0051 0.66002-1.535 0.92448-0.53001 0.26459-0.97166 0.39686-1.325 0.39679-1.1289 0.000066-2.0112-0.87945-2.6467-2.6385 0.56443-3.7839 1.4122-7.3489 2.5433-10.695-3.9534 3.8726-7.06 9.0208-9.32 15.445-2.26 6.4239-3.39 12.848-3.39 19.271-0.000009 8.9778 2.2594 15.886 6.7783 20.726 4.5188 4.8394 10.767 7.259 18.745 7.259 11.153 0 20.437-4.928 27.85-14.784 6.9888-9.3269 10.483-20.194 10.483-32.601z"/>
          </g>
          <g id="g3322" transform="translate(-4)">
            <path id="path3128" d="m224.01 39.078c-0.00009 2.2882-0.58231 4.2023-1.7467 5.7424-1.1645 1.5402-2.629 2.3103-4.3934 2.3102-0.98894 0.000066-2.1889-0.61626-3.6-1.849-0.42449-0.35174-1.0256-1.011-1.8032-1.9779-5.5046 0.000066-10.163 0.52778-13.977 1.5831-3.6001 1.2327-7.2001 2.4641-10.8 3.694-1.3422 0.000066-2.5428-0.46185-3.6016-1.3857-1.0589-0.92376-1.5884-2.1766-1.5883-3.7584-0.00004-2.2021 4.6944-4.4029 14.083-6.6024 9.3888-2.1994 17.684-3.2991 24.887-3.2992 0.56438 0.79233 0.98772 1.4087 1.27 1.849 0.8466 1.4073 1.27 2.6386 1.27 3.694zm-10.27 70.362c-0.00006 3.3435-2.9123 5.9169-8.7366 7.7203-5.8245 1.8033-14.102 2.705-24.833 2.705h-1.9067c-10.236 0-17.612-1.2542-22.13-3.7624-4.5178-2.5083-6.7767-6.7985-6.7767-12.87 0-2.1994 0.45889-5.9391 1.3767-11.219 0.28222-1.759 0.77558-4.2673 1.4801-7.5249-0.56445 0.000044-0.98779 0.000044-1.27 0-1.9756-0.26314-2.9634-1.6261-2.9634-4.0887 0-1.7617 1.2355-3.2146 3.7066-4.3586 0.77558-0.35176 2.0456-0.74789 3.8101-1.1884 0.91778-3.2548 2.6122-8.5346 5.0833-15.839 0.91776-2.7284 2.2944-6.7326 4.13-12.012v-6.9932c0.91776-3.1689 1.9767-5.2811 3.1767-6.3366 1.6955-1.4958 4.5899-2.2437 8.6833-2.2438 0.77772 0.000088 1.4133 1.4516 1.9066 4.3546 0.13996 0.96688 0.28113 2.4184 0.42334 4.3546-2.0467 5.0167-4.0945 10.078-6.1433 15.183-2.2578 5.7203-4.2345 10.911-5.93 15.573 6.3555-1.4072 13.504-2.8151 21.445-4.2237 7.9411-1.4085 13.254-2.1128 15.938-2.1129 1.0578 0.44048 1.8334 0.88092 2.3268 1.3213 1.5533 1.3213 2.3299 3.126 2.33 5.4141-0.00005 2.2881-0.45894 3.8713-1.3767 4.7494-0.6356 0.61772-1.6945 0.92655-3.1767 0.92651-1.0579-0.08866-1.869-0.13288-2.4334-0.13288-0.84889 0.000044-1.7494-0.17578-2.7016-0.52771-0.9523-0.35176-1.8173-0.70358-2.595-1.0554-5.2934 0.000044-10.906 0.70367-16.837 2.1109-4.66 1.1441-10.167 2.8601-16.52 5.1482-1.9045 4.8394-3.1568 8.7113-3.7568 11.616-0.60003 2.9044-0.90002 5.4121-0.9 7.5229-0.00002 3.2576 0.95277 5.5242 2.8584 6.7998s5.5061 1.9135 10.802 1.9135c6.8467 0 13.288-0.57202 19.323-1.7161 6.0355-1.144 12.124-2.3767 18.267-3.698 2.6132 0 3.9199 1.4972 3.92 4.4916z"/>
            <path id="path3130" d="m301.5 39.078c-0.00007 2.2882-0.58231 4.2023-1.7467 5.7424-1.1645 1.5402-2.629 2.3103-4.3934 2.3102-0.98896 0.000066-2.189-0.61626-3.6-1.849-0.42449-0.35174-1.0256-1.011-1.8032-1.9779-5.5046 0.000066-10.163 0.52778-13.977 1.5831-3.6 1.2327-7.2001 2.4641-10.8 3.694-1.3422 0.000066-2.5428-0.46185-3.6016-1.3857-1.0589-0.92376-1.5884-2.1766-1.5883-3.7584-0.00004-2.2021 4.6944-4.4029 14.083-6.6024 9.3888-2.1994 17.684-3.2991 24.887-3.2992 0.56438 0.79233 0.98772 1.4087 1.27 1.849 0.8466 1.4073 1.27 2.6386 1.27 3.694zm-10.27 70.362c-0.00008 3.3435-2.9123 5.9169-8.7367 7.7203-5.8245 1.8033-14.102 2.705-24.833 2.705h-1.9067c-10.236 0-17.612-1.2542-22.13-3.7624-4.5178-2.5083-6.7767-6.7985-6.7767-12.87-0.00002-2.1994 0.45887-5.9391 1.3767-11.219 0.2822-1.759 0.77558-4.2673 1.4801-7.5249-0.56447 0.000044-0.98781 0.000044-1.27 0-1.9756-0.26314-2.9634-1.6261-2.9634-4.0887 0-1.7617 1.2356-3.2146 3.7067-4.3586 0.77558-0.35176 2.0456-0.74789 3.8101-1.1884 0.91776-3.2548 2.6122-8.5346 5.0833-15.839 0.91776-2.7284 2.2944-6.7326 4.13-12.012v-6.9932c0.91776-3.1689 1.9766-5.2811 3.1767-6.3366 1.6955-1.4958 4.59-2.2437 8.6833-2.2438 0.7777 0.000088 1.4133 1.4516 1.9066 4.3546 0.13995 0.96688 0.28111 2.4184 0.42334 4.3546-2.0467 5.0167-4.0945 10.078-6.1433 15.183-2.2578 5.7203-4.2345 10.911-5.93 15.573 6.3555-1.4072 13.504-2.8151 21.445-4.2237 7.9411-1.4085 13.254-2.1128 15.938-2.1129 1.0578 0.44048 1.8333 0.88092 2.3268 1.3213 1.5533 1.3213 2.3299 3.126 2.33 5.4141-0.00007 2.2881-0.45896 3.8713-1.3767 4.7494-0.63561 0.61772-1.6945 0.92655-3.1767 0.92651-1.0579-0.08866-1.869-0.13288-2.4334-0.13288-0.8489 0.000044-1.7494-0.17578-2.7016-0.52771-0.9523-0.35176-1.8173-0.70358-2.595-1.0554-5.2934 0.000044-10.906 0.70367-16.837 2.1109-4.66 1.1441-10.167 2.8601-16.52 5.1482-1.9045 4.8394-3.1568 8.7113-3.7568 11.616-0.60001 2.9044-0.9 5.4121-0.9 7.5229 0 3.2576 0.95277 5.5242 2.8584 6.7998s5.5061 1.9135 10.802 1.9135c6.8467 0 13.288-0.57202 19.323-1.7161 6.0355-1.144 12.124-2.3767 18.267-3.698 2.6132 0 3.9199 1.4972 3.92 4.4916z"/>
          </g>
          <g id="g3326" fill="#808080">
            <path id="path3070" d="m35.603 192.48c-0.48534-0.24411-0.88244-1.5562-0.88244-2.9158 0-1.9015 1.0147-3.6429 4.3971-7.5465 6.2641-7.2292 13.26-18.365 16.319-25.977 2.7025-6.7245 4.3981-10.42 7.239-15.778 1.6163-3.0482 4.8834-12.94 5.9583-18.04 0.30601-1.452 1.083-5.016 1.7267-7.92 3.034-13.69 4.239-35.126 2.512-44.712-1.207-6.704-4.479-14.749-7.939-19.525-7.151-9.871-10.381-16.096-11.545-22.251-1.498-7.919-2.176-30.84-1.097-37.095 1.0157-5.8907 5.2636-16.938 8.0148-20.844 1.9468-2.7639 5.5625-5.6101 7.1269-5.6101 0.40066 0 1.3843-0.72961 2.1859-1.6213 2.306-2.5653 9.0354-5.5042 12.82-5.5986 9.8514-0.24587 19.098 11.524 21.814 27.769 0.53727 3.2129-1.5165 20.732-2.933 25.018-1.4466 4.3778-3.6633 7.2325-5.6162 7.2325-0.88008 0-1.7965 0.396-2.0365 0.88-0.61891 1.2483-11.692 1.0927-15.655-0.22-6.102-2.022-9.393-8.0159-9.403-17.128-0.0053-5.498 2.5104-13.076 5.1664-15.559 2.8466-2.6612 8.1325-5.8142 9.7473-5.8142 1.8128 0 3.4372 3.4237 3.4372 7.2444 0 3.098-0.23164 3.4716-3.2892 5.3042-4.2374 2.5398-6.0017 5.5934-6.4281 11.126-0.32262 4.1854-0.23157 4.4982 1.5565 5.3456 4.0259 1.908 12.62 0.14894 13.906-2.8462 1.1437-2.6639 3.4146-14.676 3.4243-18.114 0.01059-3.7839-4.7167-12.345-8.574-15.527-4.0336-3.3274-8.6814-3.8164-12.639-1.3297-9.0049 5.6575-13.716 14.868-14.77 28.878-0.74388 9.885-0.18516 20.81 1.2457 24.359 1.2995 3.223 2.794 5.731 8.2894 13.911 2.3388 3.4812 5.4888 8.6733 6.9999 11.538 2.8432 5.39 6.0436 17.143 6.0436 22.194 0 1.5693 0.27331 3.0638 0.60733 3.3212 0.33406 0.25736 0.66049 5.9237 0.72542 12.592 0.17751 18.229-2.9051 39.095-7.589 51.369-1.2184 3.1929-2.2153 6.3037-2.2153 6.913 0 0.60924-0.79422 2.2843-1.7649 3.7223-0.97069 1.438-1.7649 3.1168-1.7649 3.7307 0 0.61384-0.68056 1.8705-1.5124 2.7925-0.83179 0.92202-4.088 5.6529-7.2361 10.513-5.5501 8.5687-15.41 20.845-19.952 24.843-2.1106 1.8577-4.4628 2.3622-6.4211 1.3772z"/>
            <path id="path3070-1" d="m79.06 235.49c-0.48534-0.24411-0.88244-1.5562-0.88244-2.9158 0-1.9015 1.0147-3.6429 4.3971-7.5465 6.2641-7.2292 13.26-18.365 16.319-25.977 2.7025-6.7245 4.398-10.42 7.239-15.778 1.6163-3.0482 4.8834-12.94 5.9583-18.04 0.30602-1.452 1.083-5.016 1.7267-7.92 3.035-13.693 4.2398-35.129 2.5131-44.715-1.2075-6.7038-4.4788-14.749-7.9394-19.526-7.15-9.868-10.379-16.093-11.544-22.248-1.497-7.919-2.175-30.84-1.096-37.096 1.0157-5.8907 5.2636-16.938 8.0148-20.844 1.9468-2.7639 5.5625-5.6101 7.1269-5.6101 0.40066 0 1.3843-0.72961 2.1859-1.6213 2.306-2.5653 9.0354-5.5042 12.82-5.5986 9.8514-0.24587 19.098 11.524 21.814 27.769 0.53726 3.2129-1.5165 20.732-2.933 25.018-1.4466 4.3778-3.6633 7.2325-5.6162 7.2325-0.88008 0-1.7965 0.396-2.0365 0.88-0.61891 1.2483-11.692 1.0927-15.655-0.22-6.1024-2.0214-9.3932-8.0155-9.4028-17.127-0.005-5.498 2.5104-13.076 5.1664-15.559 2.8466-2.6612 8.1325-5.8142 9.7473-5.8142 1.8128 0 3.4372 3.4237 3.4372 7.2444 0 3.098-0.23164 3.4716-3.2892 5.3042-4.2374 2.5398-6.0017 5.5934-6.4281 11.126-0.32262 4.1854-0.23157 4.4982 1.5565 5.3456 4.0259 1.908 12.62 0.14894 13.906-2.8462 1.1437-2.6639 3.4146-14.676 3.4243-18.114 0.0106-3.7839-4.7167-12.345-8.574-15.527-4.0336-3.3274-8.6814-3.8164-12.639-1.3297-9.0049 5.6575-13.716 14.868-14.77 28.878-0.74388 9.885-0.18515 20.81 1.2457 24.359 1.2995 3.223 2.794 5.731 8.2894 13.911 2.3388 3.4812 5.4888 8.6733 6.9999 11.538 2.8432 5.39 6.0436 17.143 6.0436 22.194 0 1.5693 0.27331 3.0638 0.60733 3.3212 0.33406 0.25736 0.6605 5.9237 0.72543 12.592 0.17751 18.229-2.9051 39.095-7.589 51.369-1.2184 3.1929-2.2153 6.3037-2.2153 6.913 0 0.60924-0.79422 2.2843-1.7649 3.7223-0.97069 1.438-1.7649 3.1168-1.7649 3.7307 0 0.61384-0.68056 1.8705-1.5124 2.7925-0.83179 0.92202-4.088 5.6529-7.2361 10.513-5.5501 8.5687-15.41 20.845-19.952 24.843-2.1106 1.8577-4.4628 2.3622-6.4211 1.3772z"/>
          </g>
        </g>
      </g>
    </g>
  </g>
  <metadata>
    <rdf:RDF>
      <cc:Work>
        <dc:format>image/svg+xml</dc:format>
        <dc:type rdf:resource="http://purl.org/dc/dcmitype/StillImage"/>
        <cc:license rdf:resource="http://creativecommons.org/licenses/publicdomain/"/>
        <dc:publisher>
          <cc:Agent rdf:about="http://openclipart.org/">
            <dc:title>Openclipart</dc:title>
          </cc:Agent>
        </dc:publisher>
        <dc:title>Coffee Cup</dc:title>
        <dc:date>2013-10-17T21:41:26</dc:date>
        <dc:description>Coffee sign/symbol</dc:description>
        <dc:source>http://openclipart.org/detail/185107/coffee-cup-by-arvin61r58-185107</dc:source>
        <dc:creator>
          <cc:Agent>
            <dc:title>Arvin61r58</dc:title>
          </cc:Agent>
        </dc:creator>
        <dc:subject>
          <rdf:Bag>
            <rdf:li>beverage</rdf:li>
            <rdf:li>caffeine</rdf:li>
            <rdf:li>coffee</rdf:li>
            <rdf:li>coffee shop</rdf:li>
            <rdf:li>diner</rdf:li>
            <rdf:li>drink</rdf:li>
            <rdf:li>java</rdf:li>
            <rdf:li>sign</rdf:li>
            <rdf:li>signs</rdf:li>
            <rdf:li>icon</rdf:li>
          </rdf:Bag>
        </dc:subject>
      </cc:Work>
      <cc:License rdf:about="http://creativecommons.org/licenses/publicdomain/">
        <cc:permits rdf:resource="http://creativecommons.org/ns#Reproduction"/>
        <cc:permits rdf:resource="http://creativecommons.org/ns#Distribution"/>
        <cc:permits rdf:resource="http://creativecommons.org/ns#DerivativeWorks"/>
      </cc:License>
    </rdf:RDF>
  </metadata>
</svg>
